<?xml version="1.0" standalone="no"?>
<!DOCTYPE svg PUBLIC "-//W3C//DTD SVG 20010904//EN"
 "http://www.w3.org/TR/2001/REC-SVG-20010904/DTD/svg10.dtd">
<svg version="1.0" xmlns="http://www.w3.org/2000/svg"
 width="564.000000pt" height="472.000000pt" viewBox="0 0 564.000000 472.000000"
 preserveAspectRatio="xMidYMid meet">

<g transform="translate(0.000000,472.000000) scale(0.100000,-0.100000)"
fill="#000000" stroke="none">
<path d="M115 -399 c10 -19 26 -64 35 -100 10 -36 25 -85 33
-110 61 -187 83 -269 83 -309 0 -108 76 -155 191 -116 34 11 114 16 339 20
162 3 329 6 370 7 41 1 228 -1 415 -5 l340 -6 93 -30 c118 -39 138 -50 203
-108 30 -27 78 -64 107 -83 29 -19 66 -55 82 -80 44 -69 140 -270 140 -294 0
-12 10 -49 21 -81 20 -56 21 -72 14 -230 -6 -154 -7 -729 -1 -1250 3 -222 -17
-506 -39 -575 -8 -25 -19 -67 -26 -93 -21 -84 -101 -185 -240 -302 -99 -83
-155 -112 -289 -151 -85 -24 -114 -27 -285 -30 -104 -2 -229 -9 -277 -15 -48
-6 -92 -8 -98 -4 -14 9 -309 15 -530 12 -207 -2 -354 -2 -965 1 -319 2 -517
-1 -568 -8 -43 -6 -87 -8 -99 -4 -41 13 -576 18 -623 6 -33 -8 -370 1 -555 16
-128 10 -143 15 -285 97 -94 54 -163 106 -244 186 -52 50 -117 186 -148 309
-26 103 -27 111 -30 495 -2 215 -4 435 -5 490 -1 55 0 233 4 395 4 176 3 313
-3 340 -16 74 4 289 36 395 46 155 71 200 184 333 70 83 212 180 302 207 13 4
55 21 93 37 l70 30 185 -3 c243 -5 552 -4 621 1 30 2 226 0 435 -4 295 -5 392
-10 434 -22 69 -20 113 -12 144 26 24 28 43 92 33 109 -3 5 4 42 15 82 12 41
23 91 24 111 2 20 13 55 24 77 12 22 21 47 21 55 0 8 16 44 35 80 19 37 35 80
35 97 0 17 16 65 37 105 l36 74 29 -72 c15 -40 37 -89 47 -108z"/>
</g>
</svg>
